<mxfile host="app.diagrams.net" modified="2023-12-04T07:27:16.542Z" agent="Mozilla/5.0 (Windows NT 10.0; Win64; x64) AppleWebKit/537.36 (KHTML, like Gecko) Chrome/119.0.0.0 Safari/537.36" etag="LNQPWKFvfNEzBiq_5HPp" version="22.1.5" type="github">
  <diagram name="Page-1" id="2YBvvXClWsGukQMizWep">
    <mxGraphModel dx="2140" dy="566" grid="1" gridSize="10" guides="1" tooltips="1" connect="1" arrows="1" fold="1" page="1" pageScale="1" pageWidth="850" pageHeight="1100" math="0" shadow="0">
      <root>
        <mxCell id="0" />
        <mxCell id="1" parent="0" />
        <mxCell id="p7WoEbJchlRS9h8bYFal-6" value="" style="endArrow=none;dashed=1;html=1;rounded=0;fontSize=12;startSize=8;endSize=8;curved=1;entryX=0.5;entryY=1;entryDx=0;entryDy=0;" parent="1" edge="1">
          <mxGeometry width="50" height="50" relative="1" as="geometry">
            <mxPoint x="-760" y="1330" as="sourcePoint" />
            <mxPoint x="-760" y="110" as="targetPoint" />
          </mxGeometry>
        </mxCell>
        <mxCell id="p7WoEbJchlRS9h8bYFal-7" value="" style="endArrow=none;dashed=1;html=1;rounded=0;fontSize=12;startSize=8;endSize=8;curved=1;entryX=0.5;entryY=1;entryDx=0;entryDy=0;" parent="1" edge="1">
          <mxGeometry width="50" height="50" relative="1" as="geometry">
            <mxPoint x="-340.5" y="160" as="sourcePoint" />
            <mxPoint x="-340.5" y="110" as="targetPoint" />
          </mxGeometry>
        </mxCell>
        <mxCell id="p7WoEbJchlRS9h8bYFal-8" value="" style="endArrow=none;dashed=1;html=1;rounded=0;fontSize=12;startSize=8;endSize=8;curved=1;entryX=0.5;entryY=1;entryDx=0;entryDy=0;" parent="1" source="p7WoEbJchlRS9h8bYFal-43" edge="1">
          <mxGeometry width="50" height="50" relative="1" as="geometry">
            <mxPoint x="79.5" y="800" as="sourcePoint" />
            <mxPoint x="79.5" y="110" as="targetPoint" />
          </mxGeometry>
        </mxCell>
        <mxCell id="p7WoEbJchlRS9h8bYFal-15" value="로그인&amp;nbsp;" style="html=1;verticalAlign=bottom;endArrow=block;curved=0;rounded=0;entryX=0;entryY=0;entryDx=0;entryDy=5;fontSize=12;startSize=8;endSize=8;" parent="1" edge="1">
          <mxGeometry relative="1" as="geometry">
            <mxPoint x="-760" y="165" as="sourcePoint" />
            <mxPoint x="-345" y="165.0000000000001" as="targetPoint" />
          </mxGeometry>
        </mxCell>
        <mxCell id="p7WoEbJchlRS9h8bYFal-16" value="승인" style="html=1;verticalAlign=bottom;endArrow=open;dashed=1;endSize=8;curved=0;rounded=0;fontSize=12;" parent="1" source="p7WoEbJchlRS9h8bYFal-33" edge="1">
          <mxGeometry relative="1" as="geometry">
            <mxPoint x="-760" y="280" as="targetPoint" />
            <mxPoint x="-325" y="264.9999999999999" as="sourcePoint" />
            <Array as="points">
              <mxPoint x="-450" y="280" />
            </Array>
          </mxGeometry>
        </mxCell>
        <mxCell id="p7WoEbJchlRS9h8bYFal-17" value="" style="endArrow=none;dashed=1;html=1;rounded=0;fontSize=12;startSize=8;endSize=8;curved=1;entryX=0.5;entryY=1;entryDx=0;entryDy=0;" parent="1" edge="1">
          <mxGeometry width="50" height="50" relative="1" as="geometry">
            <mxPoint x="-340" y="1341.60009765625" as="sourcePoint" />
            <mxPoint x="-340" y="280" as="targetPoint" />
          </mxGeometry>
        </mxCell>
        <mxCell id="p7WoEbJchlRS9h8bYFal-18" value="Assistant" style="shape=umlActor;verticalLabelPosition=bottom;verticalAlign=top;html=1;fontSize=16;" parent="1" vertex="1">
          <mxGeometry x="-770" y="40" width="30" height="50" as="geometry" />
        </mxCell>
        <mxCell id="Pd1q8bgDEmT3K5tx0qT3-4" value="4 : getRecpie()" style="html=1;verticalAlign=bottom;endArrow=block;edgeStyle=elbowEdgeStyle;elbow=vertical;curved=0;rounded=0;" edge="1" parent="1">
          <mxGeometry x="-0.002" relative="1" as="geometry">
            <mxPoint x="275" y="179" as="sourcePoint" />
            <Array as="points">
              <mxPoint x="360" y="179" />
            </Array>
            <mxPoint x="445" y="179" as="targetPoint" />
            <mxPoint as="offset" />
          </mxGeometry>
        </mxCell>
        <mxCell id="p7WoEbJchlRS9h8bYFal-27" value="Store Manager" style="shape=umlActor;verticalLabelPosition=bottom;verticalAlign=top;html=1;fontSize=16;" parent="1" vertex="1">
          <mxGeometry x="-355" y="40" width="30" height="60" as="geometry" />
        </mxCell>
        <mxCell id="Pd1q8bgDEmT3K5tx0qT3-6" value="" style="endArrow=classic;html=1;rounded=0;" edge="1" parent="1">
          <mxGeometry width="50" height="50" relative="1" as="geometry">
            <mxPoint x="275.00034482758616" y="124" as="sourcePoint" />
            <mxPoint x="282" y="165" as="targetPoint" />
            <Array as="points">
              <mxPoint x="300" y="124" />
              <mxPoint x="300" y="144" />
              <mxPoint x="300" y="165" />
            </Array>
          </mxGeometry>
        </mxCell>
        <mxCell id="p7WoEbJchlRS9h8bYFal-33" value="" style="html=1;points=[[0,0,0,0,5],[0,1,0,0,-5],[1,0,0,0,5],[1,1,0,0,-5]];perimeter=orthogonalPerimeter;outlineConnect=0;targetShapes=umlLifeline;portConstraint=eastwest;newEdgeStyle={&quot;curved&quot;:0,&quot;rounded&quot;:0};fontSize=16;" parent="1" vertex="1">
          <mxGeometry x="-345" y="160" width="10" height="140" as="geometry" />
        </mxCell>
        <mxCell id="p7WoEbJchlRS9h8bYFal-36" value="Franchise Manager" style="shape=umlActor;verticalLabelPosition=bottom;verticalAlign=top;html=1;fontSize=16;" parent="1" vertex="1">
          <mxGeometry x="70" y="45" width="30" height="60" as="geometry" />
        </mxCell>
        <mxCell id="p7WoEbJchlRS9h8bYFal-44" value="" style="endArrow=none;dashed=1;html=1;rounded=0;fontSize=12;startSize=8;endSize=8;curved=1;entryX=0.5;entryY=1;entryDx=0;entryDy=0;" parent="1" target="p7WoEbJchlRS9h8bYFal-43" edge="1" source="gc6M7kXXbNBJsoaqooto-31">
          <mxGeometry width="50" height="50" relative="1" as="geometry">
            <mxPoint x="80" y="1080" as="sourcePoint" />
            <mxPoint x="79.5" y="110" as="targetPoint" />
          </mxGeometry>
        </mxCell>
        <mxCell id="p7WoEbJchlRS9h8bYFal-43" value="" style="html=1;points=[[0,0,0,0,5],[0,1,0,0,-5],[1,0,0,0,5],[1,1,0,0,-5]];perimeter=orthogonalPerimeter;outlineConnect=0;targetShapes=umlLifeline;portConstraint=eastwest;newEdgeStyle={&quot;curved&quot;:0,&quot;rounded&quot;:0};fontSize=16;" parent="1" vertex="1">
          <mxGeometry x="80" y="180" width="10" height="80" as="geometry" />
        </mxCell>
        <mxCell id="p7WoEbJchlRS9h8bYFal-45" value="" style="html=1;points=[[0,0,0,0,5],[0,1,0,0,-5],[1,0,0,0,5],[1,1,0,0,-5]];perimeter=orthogonalPerimeter;outlineConnect=0;targetShapes=umlLifeline;portConstraint=eastwest;newEdgeStyle={&quot;curved&quot;:0,&quot;rounded&quot;:0};fontSize=16;" parent="1" vertex="1">
          <mxGeometry x="90" y="215" width="10" height="40" as="geometry" />
        </mxCell>
        <mxCell id="p7WoEbJchlRS9h8bYFal-46" value="인사정보 확인&amp;nbsp;" style="html=1;align=left;spacingLeft=2;endArrow=block;rounded=0;edgeStyle=orthogonalEdgeStyle;curved=0;rounded=0;fontSize=12;startSize=8;endSize=8;" parent="1" target="p7WoEbJchlRS9h8bYFal-45" edge="1">
          <mxGeometry relative="1" as="geometry">
            <mxPoint x="95" y="195" as="sourcePoint" />
            <Array as="points">
              <mxPoint x="125" y="225" />
            </Array>
          </mxGeometry>
        </mxCell>
        <mxCell id="p7WoEbJchlRS9h8bYFal-47" value="인사정보 확인 요청" style="html=1;verticalAlign=bottom;endArrow=block;curved=0;rounded=0;fontSize=12;startSize=8;endSize=8;" parent="1" target="p7WoEbJchlRS9h8bYFal-43" edge="1">
          <mxGeometry width="80" relative="1" as="geometry">
            <mxPoint x="-335" y="190" as="sourcePoint" />
            <mxPoint x="-255" y="190" as="targetPoint" />
          </mxGeometry>
        </mxCell>
        <mxCell id="p7WoEbJchlRS9h8bYFal-50" value="승인" style="html=1;verticalAlign=bottom;endArrow=open;dashed=1;endSize=8;curved=0;rounded=0;fontSize=12;exitX=1;exitY=1;exitDx=0;exitDy=-5;exitPerimeter=0;" parent="1" source="p7WoEbJchlRS9h8bYFal-43" target="p7WoEbJchlRS9h8bYFal-33" edge="1">
          <mxGeometry relative="1" as="geometry">
            <mxPoint x="-230" y="280" as="sourcePoint" />
            <mxPoint x="-310" y="280" as="targetPoint" />
          </mxGeometry>
        </mxCell>
        <mxCell id="gc6M7kXXbNBJsoaqooto-7" value="" style="html=1;points=[[0,0,0,0,5],[0,1,0,0,-5],[1,0,0,0,5],[1,1,0,0,-5]];perimeter=orthogonalPerimeter;outlineConnect=0;targetShapes=umlLifeline;portConstraint=eastwest;newEdgeStyle={&quot;curved&quot;:0,&quot;rounded&quot;:0};" vertex="1" parent="1">
          <mxGeometry x="-345" y="600" width="10" height="80" as="geometry" />
        </mxCell>
        <mxCell id="gc6M7kXXbNBJsoaqooto-8" value="레시피 동기화 요청" style="html=1;verticalAlign=bottom;endArrow=block;curved=0;rounded=0;entryX=0;entryY=0;entryDx=0;entryDy=5;" edge="1" target="gc6M7kXXbNBJsoaqooto-7" parent="1">
          <mxGeometry x="0.0024" relative="1" as="geometry">
            <mxPoint x="-760" y="605" as="sourcePoint" />
            <mxPoint as="offset" />
          </mxGeometry>
        </mxCell>
        <mxCell id="gc6M7kXXbNBJsoaqooto-9" value="레시피 동기화" style="html=1;verticalAlign=bottom;endArrow=open;dashed=1;endSize=8;curved=0;rounded=0;exitX=0;exitY=1;exitDx=0;exitDy=-5;" edge="1" source="gc6M7kXXbNBJsoaqooto-7" parent="1">
          <mxGeometry relative="1" as="geometry">
            <mxPoint x="-760" y="675" as="targetPoint" />
          </mxGeometry>
        </mxCell>
        <mxCell id="gc6M7kXXbNBJsoaqooto-10" value="" style="html=1;points=[[0,0,0,0,5],[0,1,0,0,-5],[1,0,0,0,5],[1,1,0,0,-5]];perimeter=orthogonalPerimeter;outlineConnect=0;targetShapes=umlLifeline;portConstraint=eastwest;newEdgeStyle={&quot;curved&quot;:0,&quot;rounded&quot;:0};" vertex="1" parent="1">
          <mxGeometry x="-335" y="630" width="10" height="40" as="geometry" />
        </mxCell>
        <mxCell id="gc6M7kXXbNBJsoaqooto-11" value="판매중인 레시피&amp;nbsp; 확인" style="html=1;align=left;spacingLeft=2;endArrow=block;rounded=0;edgeStyle=orthogonalEdgeStyle;curved=0;rounded=0;" edge="1" target="gc6M7kXXbNBJsoaqooto-10" parent="1">
          <mxGeometry relative="1" as="geometry">
            <mxPoint x="-330" y="610" as="sourcePoint" />
            <Array as="points">
              <mxPoint x="-300" y="640" />
            </Array>
          </mxGeometry>
        </mxCell>
        <mxCell id="gc6M7kXXbNBJsoaqooto-21" value="" style="html=1;points=[[0,0,0,0,5],[0,1,0,0,-5],[1,0,0,0,5],[1,1,0,0,-5]];perimeter=orthogonalPerimeter;outlineConnect=0;targetShapes=umlLifeline;portConstraint=eastwest;newEdgeStyle={&quot;curved&quot;:0,&quot;rounded&quot;:0};" vertex="1" parent="1">
          <mxGeometry x="-345" y="740" width="10" height="310" as="geometry" />
        </mxCell>
        <mxCell id="gc6M7kXXbNBJsoaqooto-22" value="" style="html=1;points=[[0,0,0,0,5],[0,1,0,0,-5],[1,0,0,0,5],[1,1,0,0,-5]];perimeter=orthogonalPerimeter;outlineConnect=0;targetShapes=umlLifeline;portConstraint=eastwest;newEdgeStyle={&quot;curved&quot;:0,&quot;rounded&quot;:0};" vertex="1" parent="1">
          <mxGeometry x="-335" y="770" width="10" height="40" as="geometry" />
        </mxCell>
        <mxCell id="gc6M7kXXbNBJsoaqooto-23" value="남아있는 재고 확인" style="html=1;align=left;spacingLeft=2;endArrow=block;rounded=0;edgeStyle=orthogonalEdgeStyle;curved=0;rounded=0;" edge="1" target="gc6M7kXXbNBJsoaqooto-22" parent="1">
          <mxGeometry relative="1" as="geometry">
            <mxPoint x="-330" y="750" as="sourcePoint" />
            <Array as="points">
              <mxPoint x="-300" y="780" />
            </Array>
          </mxGeometry>
        </mxCell>
        <mxCell id="gc6M7kXXbNBJsoaqooto-24" value="loop" style="shape=umlFrame;whiteSpace=wrap;html=1;pointerEvents=0;" vertex="1" parent="1">
          <mxGeometry x="-470" y="690" width="590" height="380" as="geometry" />
        </mxCell>
        <mxCell id="gc6M7kXXbNBJsoaqooto-32" value="" style="endArrow=none;dashed=1;html=1;rounded=0;fontSize=12;startSize=8;endSize=8;curved=1;entryX=0.5;entryY=1;entryDx=0;entryDy=0;" edge="1" parent="1" target="gc6M7kXXbNBJsoaqooto-31">
          <mxGeometry width="50" height="50" relative="1" as="geometry">
            <mxPoint x="80" y="1330" as="sourcePoint" />
            <mxPoint x="85" y="260" as="targetPoint" />
          </mxGeometry>
        </mxCell>
        <mxCell id="gc6M7kXXbNBJsoaqooto-31" value="" style="html=1;points=[[0,0,0,0,5],[0,1,0,0,-5],[1,0,0,0,5],[1,1,0,0,-5]];perimeter=orthogonalPerimeter;outlineConnect=0;targetShapes=umlLifeline;portConstraint=eastwest;newEdgeStyle={&quot;curved&quot;:0,&quot;rounded&quot;:0};" vertex="1" parent="1">
          <mxGeometry x="80" y="830" width="10" height="180" as="geometry" />
        </mxCell>
        <mxCell id="gc6M7kXXbNBJsoaqooto-33" value="" style="endArrow=open;endFill=1;endSize=12;html=1;rounded=0;" edge="1" parent="1" target="gc6M7kXXbNBJsoaqooto-31">
          <mxGeometry width="160" relative="1" as="geometry">
            <mxPoint x="-335" y="840" as="sourcePoint" />
            <mxPoint x="-175" y="840" as="targetPoint" />
          </mxGeometry>
        </mxCell>
        <mxCell id="gc6M7kXXbNBJsoaqooto-38" value="배송 물품 개수&amp;nbsp;" style="html=1;verticalAlign=bottom;endArrow=open;dashed=1;endSize=8;curved=0;rounded=0;" edge="1" parent="1" target="gc6M7kXXbNBJsoaqooto-21">
          <mxGeometry relative="1" as="geometry">
            <mxPoint x="80" y="970" as="sourcePoint" />
            <mxPoint y="970" as="targetPoint" />
          </mxGeometry>
        </mxCell>
        <mxCell id="gc6M7kXXbNBJsoaqooto-40" value="재고 전송" style="text;html=1;align=center;verticalAlign=middle;resizable=0;points=[];autosize=1;strokeColor=none;fillColor=none;" vertex="1" parent="1">
          <mxGeometry x="-175" y="808" width="70" height="30" as="geometry" />
        </mxCell>
        <mxCell id="gc6M7kXXbNBJsoaqooto-41" value="if&amp;nbsp;&amp;nbsp;&lt;br style=&quot;border-color: var(--border-color);&quot;&gt;&lt;span style=&quot;&quot;&gt;inventory&amp;lt;target&lt;/span&gt;" style="shape=umlFrame;whiteSpace=wrap;html=1;pointerEvents=0;" vertex="1" parent="1">
          <mxGeometry x="-425" y="860" width="535" height="190" as="geometry" />
        </mxCell>
      </root>
    </mxGraphModel>
  </diagram>
</mxfile>
